/* XPM */
static char * slow_up_saw_xpm[] = {
"24 12 3 1",
" 	c None",
".	c #000000",
"+	c #000CFF",
".          +          + ",
".         +          +  ",
".        +          +   ",
".       +          +    ",
".      +          +     ",
".     +          +      ",
".    +          +       ",
".   +          +        ",
".  +          +         ",
". +          +          ",
".+          +          +",
"........................"};
